<svg width="1440" height="400" viewBox="0 0 1440 400" fill="none" xmlns="http://www.w3.org/2000/svg">
<g clip-path="url(#clip0_3822_34476)">
<mask id="mask0_3822_34476" style="mask-type:alpha" maskUnits="userSpaceOnUse" x="0" y="0" width="1440" height="400">
<path d="M0 0H1440V357L0 399.5V0Z" fill="url(#paint0_linear_3822_34476)"/>
</mask>
<g mask="url(#mask0_3822_34476)">
<rect x="-552.75" y="-451.667" width="2545.5" height="1803.33" fill="#FAFAFA"/>
<path d="M1459.07 1029.42C1242.86 1957.99 460.467 2536.21 -288.449 2320.92C-1037.36 2105.63 -1469.21 1178.36 -1252.99 249.796C-1036.78 -678.764 -254.386 -1256.99 494.53 -1041.7C1243.45 -826.409 1675.29 100.864 1459.07 1029.42Z" fill="url(#paint1_radial_3822_34476)"/>
<path d="M2248.14 621.304C2136.74 1315.16 1725.83 1814.09 1330.35 1735.69C934.872 1657.3 704.586 1031.27 815.991 337.421C927.396 -356.432 1338.3 -855.362 1733.78 -776.969C2129.26 -698.577 2359.55 -72.5489 2248.14 621.304Z" fill="url(#paint2_radial_3822_34476)"/>
<path d="M665.247 507.856C209.501 473.185 -146.308 223.629 -129.475 -49.5439C-112.642 -322.716 270.459 -516.06 726.205 -481.39C1181.95 -446.719 1537.76 -197.162 1520.93 76.0101C1504.09 349.183 1120.99 542.527 665.247 507.856Z" fill="url(#paint3_radial_3822_34476)"/>
</g>
</g>
<defs>
<linearGradient id="paint0_linear_3822_34476" x1="0" y1="0" x2="1440" y2="358.5" gradientUnits="userSpaceOnUse">
<stop stop-color="#5F5DF9"/>
<stop offset="1" stop-color="#4E4CCC"/>
</linearGradient>
<radialGradient id="paint1_radial_3822_34476" cx="0" cy="0" r="1" gradientUnits="userSpaceOnUse" gradientTransform="translate(103.041 639.61) rotate(103.108) scale(1726.29 1409.1)">
<stop stop-color="#F04D42"/>
<stop offset="1" stop-color="#F04D42" stop-opacity="0"/>
</radialGradient>
<radialGradient id="paint2_radial_3822_34476" cx="0" cy="0" r="1" gradientUnits="userSpaceOnUse" gradientTransform="translate(1532.07 479.362) rotate(99.1215) scale(1272.42 729.521)">
<stop stop-color="#5F5DF9"/>
<stop offset="1" stop-color="#5F5DF9" stop-opacity="0"/>
</radialGradient>
<radialGradient id="paint3_radial_3822_34476" cx="0" cy="0" r="1" gradientUnits="userSpaceOnUse" gradientTransform="translate(695.727 13.2331) rotate(-175.65) scale(827.586 495.51)">
<stop stop-color="#D478D8"/>
<stop offset="1" stop-color="#D478D8" stop-opacity="0"/>
</radialGradient>
<clipPath id="clip0_3822_34476">
<rect width="1440" height="399.5" fill="white"/>
</clipPath>
</defs>
</svg>
