<svg width="279" height="53" viewBox="0 0 279 53" fill="none" xmlns="http://www.w3.org/2000/svg">
<path d="M47.3752 26.4483C47.3773 22.3531 46.1865 18.346 43.9483 14.9164L52.2666 6.59973L46.0187 0.353027L37.7073 8.66972C30.6967 4.09867 21.6476 4.09867 14.637 8.66972L6.31184 0.353027L0.0639648 6.59973L8.38223 14.9164C3.81032 21.9257 3.81032 30.9731 8.38223 37.9824L0.0639648 46.2991L6.31184 52.5458L14.6301 44.2291C21.6407 48.8001 30.6898 48.8001 37.7004 44.2291L46.0187 52.5458L52.2666 46.2991L43.9483 37.9893C46.1882 34.557 47.3791 30.5465 47.3752 26.4483ZM13.7923 26.4483C13.7826 21.3967 16.8455 16.8466 21.53 14.9539C26.2144 13.0611 31.5792 14.2059 35.0826 17.8458C38.586 21.4858 39.5241 26.8896 37.4525 31.497L29.2904 23.3249L23.0402 29.5739L31.2047 37.7345C27.3794 39.4539 22.9428 39.1147 19.4235 36.8336C15.9043 34.5525 13.7837 30.6415 13.7923 26.4483Z" fill="#FAFAFA"/>
<path fill-rule="evenodd" clip-rule="evenodd" d="M92.307 26.699C92.307 31.8009 89.7201 36.4068 85.1133 38.5326L87.5585 41.7213L82.5264 44.2723L79.1599 39.8081H79.0536C70.726 39.8081 65.8003 33.7495 65.8003 26.699C65.8003 19.6484 70.726 13.5898 79.0536 13.5898C87.3813 13.5898 92.307 19.6484 92.307 26.699ZM79.0536 34.6707C83.7667 34.6707 86.3182 31.0214 86.3182 26.699C86.3182 22.3765 83.7667 18.7272 79.0536 18.7272C74.3051 18.7272 71.7537 22.3765 71.7891 26.699C71.7537 31.0214 74.3051 34.6707 79.0536 34.6707ZM101.591 39.5601C97.4807 39.5601 95.2837 37.0091 95.2837 32.5803V22.0222H100.776V31.3757C100.776 33.7141 101.556 34.9896 103.611 34.9896C105.915 34.9896 106.907 33.5015 106.907 31.1986V22.0222H112.293V39.0995H106.907V36.6548C105.95 38.4617 104.178 39.5601 101.591 39.5601ZM123.598 39.5601C118.495 39.5601 115.553 35.6982 115.553 30.5608C115.553 25.4589 118.707 21.5616 123.669 21.5616C126.149 21.5616 128.098 22.7308 129.019 24.4669V22.0222H134.406V39.0995H129.019V36.6902C128.098 38.3909 125.972 39.5601 123.598 39.5601ZM125.157 35.0605C127.85 35.0605 129.232 33.0409 129.232 30.5608C129.232 28.1162 127.85 26.0967 125.157 26.0967C122.641 26.0967 121.082 27.9744 121.082 30.5608C121.082 33.1472 122.641 35.0605 125.157 35.0605ZM138.906 22.0222H144.328V24.5023C145.32 22.5891 147.269 21.5616 149.856 21.5616C154.002 21.5616 156.093 23.9 156.093 28.5413V39.0995H150.636V30.3128C150.636 27.443 149.821 26.1321 147.624 26.1321C145.462 26.1321 144.328 27.5493 144.328 30.1711V39.0995H138.906V22.0222ZM169.382 34.8833C170.055 34.8833 170.764 34.8479 171.26 34.777V39.0995C170.48 39.2412 169.205 39.3829 167.646 39.3829C165.094 39.3829 161.586 38.816 161.586 33.1118V26.3092H158.893V22.0222H161.586V16.9557H167.008V22.0222H170.87V26.3092H167.008V31.978C167.008 34.4936 168.035 34.8833 169.382 34.8833ZM181.218 39.6309C176.221 39.6309 173.138 37.1863 173.138 33.9621H178.525C178.525 35.1313 179.659 35.9816 181.324 35.9816C182.493 35.9816 183.309 35.3793 183.309 34.3873C183.309 33.7141 182.99 33.1472 182.068 32.9347L177.887 31.8717C175.052 31.1631 173.599 29.3916 173.599 26.947C173.599 23.7583 176.398 21.5262 180.899 21.5262C185.895 21.5262 188.518 23.6165 188.518 26.8407H183.167C183.167 25.6361 182.281 24.9629 180.828 24.9629C179.659 24.9629 178.879 25.5298 178.879 26.3801C178.879 27.1596 179.411 27.6556 180.332 27.9036L184.372 29.0019C186.994 29.7105 188.695 31.3049 188.695 33.7495C188.695 37.2571 185.895 39.6309 181.218 39.6309ZM201.027 34.8833C201.7 34.8833 202.409 34.8479 202.905 34.777V39.0995C202.125 39.2412 200.85 39.3829 199.291 39.3829C196.739 39.3829 193.231 38.816 193.231 33.1118V26.3092H190.538V22.0222H193.231V16.9557H198.653V22.0222H202.515V26.3092H198.653V31.978C198.653 34.4936 199.68 34.8833 201.027 34.8833ZM212.827 39.5601C207.724 39.5601 204.783 35.6982 204.783 30.5608C204.783 25.4589 207.937 21.5616 212.898 21.5616C215.379 21.5616 217.328 22.7308 218.249 24.4669V22.0222H223.636V39.0995H218.249V36.6902C217.328 38.3909 215.202 39.5601 212.827 39.5601ZM214.387 35.0605C217.08 35.0605 218.462 33.0409 218.462 30.5608C218.462 28.1162 217.08 26.0967 214.387 26.0967C211.871 26.0967 210.311 27.9744 210.311 30.5608C210.311 33.1472 211.871 35.0605 214.387 35.0605ZM228.136 22.0222H233.558V24.5023C234.302 22.8017 236.074 21.5616 238.448 21.5616C241.496 21.5616 243.055 22.9079 243.799 24.7149C244.72 22.8725 246.74 21.5616 249.256 21.5616C254.147 21.5616 255.316 24.9275 255.316 28.5059V39.0995H249.859V29.4979C249.859 27.1241 248.973 26.1321 247.307 26.1321C245.606 26.1321 244.437 27.0887 244.437 30.3128V39.0995H238.98V29.4625C238.98 27.0887 238.129 26.1321 236.464 26.1321C234.727 26.1321 233.558 27.0887 233.558 30.3128V39.0995H228.136V22.0222ZM259.604 22.0222H265.026V24.4669C265.912 22.8371 268.038 21.5616 270.589 21.5616C275.267 21.5616 278.456 25.1755 278.456 30.5608C278.456 35.9108 275.161 39.5601 270.448 39.5601C267.932 39.5601 265.876 38.2846 265.026 36.6902V46.1855H259.604V22.0222ZM268.888 35.0605C271.263 35.0605 272.928 33.2181 272.928 30.5608C272.928 27.939 271.263 26.0967 268.888 26.0967C266.443 26.0967 264.778 27.9036 264.778 30.5608C264.778 33.2535 266.479 35.0605 268.888 35.0605Z" fill="#FAFAFA"/>
</svg>
